<?xml version="1.0" standalone="no"?>
<!DOCTYPE svg PUBLIC "-//W3C//DTD SVG 20010904//EN"
 "http://www.w3.org/TR/2001/REC-SVG-20010904/DTD/svg10.dtd">
<svg version="1.0" xmlns="http://www.w3.org/2000/svg"
 width="304.000000pt" height="304.000000pt" viewBox="0 0 304.000000 304.000000"
 preserveAspectRatio="xMidYMid meet">
<metadata>
Created by potrace 1.15, written by Peter Selinger 2001-2017
</metadata>
<g transform="translate(0.000000,304.000000) scale(0.100000,-0.100000)"
fill="#000000" stroke="none">
<path d="M207 3026 c-55 -20 -113 -63 -147 -109 -64 -87 -61 -6 -58 -1413 l3
-1279 23 -43 c32 -60 95 -119 155 -148 l52 -24 1280 0 1280 0 52 24 c60 29
123 88 155 148 l23 43 3 1282 c2 1276 2 1282 -18 1337 -24 64 -87 133 -151
168 l-44 23 -1285 2 c-1064 2 -1292 0 -1323 -11z m2644 -48 c63 -37 113 -96
133 -155 15 -44 16 -165 14 -1313 l-3 -1265 -23 -45 c-30 -58 -66 -95 -122
-128 l-45 -27 -1290 0 -1290 0 -46 27 c-50 29 -98 79 -126 131 -17 30 -18 109
-21 1301 -2 1155 -1 1274 14 1319 25 77 105 154 182 177 15 5 601 8 1302 7
l1275 -2 46 -27z"/>
<path d="M280 2563 c0 -60 5 -126 10 -148 11 -51 55 -91 109 -100 31 -5 41
-11 41 -26 0 -10 7 -19 15 -19 8 0 15 8 15 18 0 18 4 18 88 5 88 -13 152 -10
152 8 0 6 -7 6 -20 -1 -27 -14 -210 8 -217 27 -3 8 -4 16 -2 18 3 2 50 -1 106
-8 91 -10 103 -9 128 7 27 18 27 18 20 -6 -6 -22 -5 -22 7 -3 7 12 14 70 16
153 4 116 2 132 -12 132 -14 0 -16 -15 -16 -110 0 -161 -2 -162 -207 -134
l-43 6 0 89 c0 72 -3 89 -15 89 -12 0 -15 -17 -15 -89 l0 -88 -42 7 c-27 5
-51 18 -65 35 -21 24 -23 36 -23 136 0 90 -3 109 -15 109 -12 0 -15 -19 -15
-107z"/>
<path d="M1533 2445 c-197 -45 -379 -174 -494 -350 -99 -152 -135 -287 -126
-479 8 -186 57 -318 171 -463 102 -129 263 -236 417 -280 91 -25 337 -25 428
0 86 25 193 78 264 133 31 24 57 41 57 36 -1 -4 -45 -92 -98 -197 -85 -167
-101 -192 -132 -207 -30 -15 -64 -18 -227 -18 l-193 0 0 -25 0 -25 255 0 c278
0 296 3 349 56 34 35 306 576 306 610 0 23 -26 58 -49 65 -9 3 -3 33 20 99 25
75 33 118 37 203 l5 107 53 0 c51 0 54 1 54 25 0 24 -3 25 -55 25 -36 0 -57 4
-59 13 -2 6 -11 44 -20 82 -63 267 -295 506 -563 581 -80 23 -317 28 -400 9z
m365 -21 c80 -18 188 -64 250 -106 158 -108 295 -300 332 -468 6 -30 14 -63
17 -72 4 -15 -3 -18 -44 -18 l-49 0 -18 71 c-31 123 -80 203 -186 310 -80 81
-109 103 -180 137 -292 140 -621 70 -833 -178 -66 -76 -102 -140 -134 -235
-22 -69 -26 -98 -27 -205 -1 -143 19 -227 81 -339 45 -81 155 -197 238 -251
127 -83 302 -122 454 -101 169 22 295 87 416 211 53 55 73 70 96 70 37 0 37
-14 0 -88 -41 -82 -125 -154 -256 -219 -201 -101 -478 -101 -680 -1 -219 110
-383 314 -430 537 -21 103 -19 267 5 368 55 229 234 442 447 532 163 69 327
84 501 45z m30 -127 c41 -14 98 -41 129 -59 159 -96 291 -278 318 -435 l7 -43
-45 0 -45 0 -11 46 c-20 80 -73 174 -137 243 -69 73 -140 121 -242 159 -58 22
-82 26 -187 26 -105 0 -129 -4 -187 -26 -102 -38 -174 -86 -242 -160 -112
-120 -163 -265 -152 -428 10 -160 56 -260 171 -375 89 -89 166 -134 276 -160
177 -41 375 6 507 121 50 44 53 45 109 42 l58 -3 -45 -49 c-279 -303 -761
-284 -1023 39 -169 209 -195 530 -60 753 103 169 261 288 438 328 96 22 273
13 363 -19z m-79 -102 c148 -35 297 -156 364 -295 20 -41 39 -89 42 -106 l6
-31 -85 -5 c-131 -7 -145 -20 -251 -229 -124 -246 -119 -266 68 -278 l102 -6
-45 -33 c-173 -129 -405 -148 -594 -50 -79 42 -192 155 -234 234 -82 158 -82
361 1 518 41 79 154 192 233 234 114 60 262 77 393 47z m272 -513 c-31 -44
-171 -332 -171 -353 0 -14 -7 -19 -30 -19 -22 0 -30 5 -30 18 1 9 38 89 83
177 64 125 90 165 116 183 46 30 57 28 32 -6z m147 -59 c-6 -101 -29 -176 -78
-257 l-34 -56 -78 0 c-60 0 -78 3 -78 14 0 17 134 290 162 329 12 16 35 35 52
43 58 25 59 23 54 -73z m119 -5 c-6 -93 -33 -201 -68 -270 -19 -37 -21 -38
-72 -38 l-53 0 43 88 c43 88 63 170 63 265 l0 47 46 0 47 0 -6 -92z m113 13
c0 -92 -21 -200 -51 -272 l-21 -49 -54 0 -53 0 24 53 c35 76 55 160 62 260 l6
87 43 0 44 0 0 -79z m-40 -393 c-1 -7 -65 -139 -143 -293 -118 -232 -148 -284
-176 -302 -46 -31 -57 -29 -32 5 11 16 84 157 162 315 126 253 145 287 166
287 13 0 23 -6 23 -12z"/>
<path d="M330 2227 c-42 -21 -51 -52 -47 -162 2 -58 9 -112 18 -130 24 -50 45
-55 254 -53 l190 2 -201 6 c-208 5 -226 9 -237 50 -5 18 -3 19 24 5 41 -22
409 -22 409 -1 0 12 -33 15 -196 18 -192 3 -196 3 -215 27 -15 18 -19 39 -19
98 0 65 3 77 25 98 24 25 26 25 215 25 162 0 190 2 190 15 0 13 -28 15 -192
15 -135 0 -200 -4 -218 -13z"/>
<path d="M235 1840 c-10 -16 -7 -18 84 -44 94 -27 121 -47 121 -88 0 -22 -5
-28 -22 -29 -22 -1 -22 -1 2 -8 l25 -8 -25 -5 c-23 -5 -23 -5 -2 -7 18 -1 22
-7 22 -35 0 -18 -6 -38 -12 -44 -7 -6 -53 -22 -102 -36 -97 -28 -104 -32 -90
-46 12 -12 170 33 204 59 18 13 26 29 28 59 l3 42 137 2 137 2 -140 6 -140 6
140 5 140 5 -137 2 -138 2 0 29 c0 51 -40 85 -127 111 -43 12 -83 25 -89 27
-7 2 -15 -1 -19 -7z"/>
<path d="M595 1481 l-120 -27 -3 23 c-5 33 -32 29 -32 -5 0 -26 -3 -28 -86
-46 -100 -22 -134 -44 -134 -87 0 -51 43 -84 138 -105 l82 -19 0 -72 0 -73
-105 0 c-87 0 -105 -3 -105 -15 0 -12 18 -15 105 -15 l105 0 0 -100 0 -100
-105 0 c-87 0 -105 -3 -105 -15 0 -12 18 -15 105 -15 98 0 105 -1 105 -20 0
-11 7 -20 15 -20 8 0 15 9 15 20 0 19 7 20 135 20 113 0 135 2 135 15 0 13
-22 15 -135 15 l-135 0 0 100 0 100 135 0 c113 0 135 2 135 15 0 13 -22 15
-135 15 l-135 0 0 69 c0 61 2 69 18 65 150 -36 238 -52 246 -44 16 16 3 21
-116 46 -62 14 -121 27 -130 30 -15 5 -18 18 -18 94 0 76 3 89 18 94 9 3 68
16 130 30 121 26 128 29 117 45 -8 13 5 15 -140 -18z m-155 -151 c0 -90 4 -87
-82 -66 -74 17 -108 40 -108 71 0 29 19 40 97 59 98 24 93 27 93 -64z"/>
<path d="M222 680 c6 -101 23 -128 99 -153 111 -36 149 -13 149 95 0 43 4 60
18 68 16 11 16 11 0 6 -13 -4 -18 0 -18 14 0 24 13 25 113 6 74 -15 117 -33
117 -50 0 -4 -6 -3 -14 3 -15 12 -166 44 -174 37 -5 -6 16 -11 102 -26 89 -15
106 -35 107 -129 1 -42 4 -87 8 -101 7 -24 7 -24 14 9 4 18 7 68 7 110 0 89
-21 134 -73 156 -46 19 -181 39 -211 31 -26 -6 -26 -8 -26 -96 l0 -90 -37 0
c-61 1 -117 17 -135 41 -13 15 -18 39 -18 85 0 52 -3 64 -16 64 -14 0 -16 -11
-12 -80z"/>
</g>
</svg>
